<svg xmlns="http://www.w3.org/2000/svg" width="16.764" height="16.764" viewBox="0 0 16.764 16.764"><defs><style>.a{fill:#888;}</style></defs><path class="a" d="M2.794,9.08h2.1v1.4h-2.1Zm3.492,1.4h2.1V9.08h-2.1ZM2.794,13.271h2.1v-1.4h-2.1Zm3.492,0h2.1v-1.4h-2.1ZM2.794,4.889h2.1v-1.4h-2.1Zm3.492,0h2.1v-1.4h-2.1ZM2.794,7.683h2.1v-1.4h-2.1Zm3.492,0h2.1v-1.4h-2.1Zm10.477-2.1V16.764H0V2.1A2.1,2.1,0,0,1,2.1,0H9.08a2.1,2.1,0,0,1,2.1,2.1v1.4h3.492A2.1,2.1,0,0,1,16.764,5.588ZM9.779,2.1a.7.7,0,0,0-.7-.7H2.1a.7.7,0,0,0-.7.7V15.367H9.779Zm5.588,3.492a.7.7,0,0,0-.7-.7H11.176V15.367h4.191Zm-2.794,4.889h1.4V9.08h-1.4Zm0,2.794h1.4v-1.4h-1.4Zm0-5.588h1.4v-1.4h-1.4Z"/></svg>