<svg xmlns="http://www.w3.org/2000/svg" width="17.882" height="17.882" viewBox="0 0 17.882 17.882"><defs><style>.a{fill:#888;}</style></defs><path class="a" d="M16.1.764l-9.91,9.91A4.037,4.037,0,0,0,5,13.548v1.092a.813.813,0,0,0,.813.813H6.9a4.036,4.036,0,0,0,2.873-1.19l9.91-9.91a2.54,2.54,0,0,0,0-3.588,2.6,2.6,0,0,0-3.588,0ZM18.538,3.2l-9.91,9.91a2.455,2.455,0,0,1-1.724.714H6.626v-.279a2.455,2.455,0,0,1,.714-1.724l9.91-9.91a.933.933,0,0,1,1.289,0,.913.913,0,0,1,0,1.289Z" transform="translate(-2.562 -0.008)"/><path class="a" d="M17.137,6.69a.745.745,0,0,0-.745.745v3.741h-2.98a2.235,2.235,0,0,0-2.235,2.235v2.98H3.725A2.235,2.235,0,0,1,1.49,14.157V3.725A2.235,2.235,0,0,1,3.725,1.49h6.737a.745.745,0,1,0,0-1.49H3.725A3.73,3.73,0,0,0,0,3.725V14.157a3.73,3.73,0,0,0,3.725,3.725h8.452a3.7,3.7,0,0,0,2.635-1.091l1.979-1.98a3.7,3.7,0,0,0,1.092-2.634V7.435A.745.745,0,0,0,17.137,6.69Zm-3.379,9.048a2.217,2.217,0,0,1-1.092.6V13.412a.745.745,0,0,1,.745-.745h2.924a2.247,2.247,0,0,1-.6,1.091Z"/></svg>