<svg xmlns="http://www.w3.org/2000/svg" width="15.955" height="15.938" viewBox="0 0 15.955 15.938"><defs><style>.a{fill:#888;}</style></defs><path class="a" d="M12.829,9.739a3.094,3.094,0,0,0-2.549,1.344L5.957,9.132a3.037,3.037,0,0,0,0-2.316l4.316-1.962A3.094,3.094,0,1,0,9.728,3.1a3.077,3.077,0,0,0,.053.522L5.192,5.706a3.1,3.1,0,1,0-.01,4.533l4.6,2.077a3.145,3.145,0,0,0-.052.521,3.1,3.1,0,1,0,3.1-3.1Zm0-8.411A1.771,1.771,0,1,1,11.058,3.1a1.771,1.771,0,0,1,1.77-1.771ZM3.09,9.739A1.771,1.771,0,1,1,4.86,7.968,1.771,1.771,0,0,1,3.09,9.739Zm9.739,4.869A1.771,1.771,0,1,1,14.6,12.838a1.771,1.771,0,0,1-1.771,1.771Z" transform="translate(0.027 0.001)"/></svg>