<svg xmlns="http://www.w3.org/2000/svg" width="30" height="27.353" viewBox="0 0 30 27.353">
  <g id="Group_68" data-name="Group 68" transform="translate(-357 -579)">
    <g id="Polygon_1" data-name="Polygon 1" transform="translate(357 579)" fill="none">
      <path d="M12.37,4.8a3,3,0,0,1,5.261,0L27.564,22.91a3,3,0,0,1-2.63,4.442H5.067a3,3,0,0,1-2.63-4.442Z" stroke="none"/>
      <path d="M 14.99999904632568 5.239173889160156 C 14.8219690322876 5.239173889160156 14.38014888763428 5.289764404296875 14.12317943572998 5.758354187011719 L 4.189828872680664 23.87211418151855 C 3.942449569702148 24.32322311401367 4.11884880065918 24.71494483947754 4.206169128417969 24.86242485046387 C 4.293489456176758 25.0099048614502 4.552148818969727 25.35293388366699 5.066648483276367 25.35293388366699 L 24.933349609375 25.35293388366699 C 25.44784927368164 25.35293388366699 25.70649909973145 25.0099048614502 25.7938289642334 24.86242485046387 C 25.88114929199219 24.71494483947754 26.05754852294922 24.32322311401367 25.8101692199707 23.87211418151855 L 15.87679862976074 5.758335113525391 C 15.61983871459961 5.289764404296875 15.17802906036377 5.239173889160156 14.99999904632568 5.239173889160156 M 15.00000190734863 3.239175796508789 C 16.03051376342773 3.239175796508789 17.06101989746094 3.758338928222656 17.63042831420898 4.796674728393555 L 27.56378936767578 22.91044425964355 C 28.66016960144043 24.90971374511719 27.21352005004883 27.35293388366699 24.933349609375 27.35293388366699 L 5.066648483276367 27.35293388366699 C 2.786479949951172 27.35293388366699 1.339828491210938 24.90972518920898 2.436208724975586 22.91044425964355 L 12.36955833435059 4.796684265136719 C 12.93896865844727 3.75834846496582 13.9694881439209 3.239175796508789 15.00000190734863 3.239175796508789 Z" stroke="none" fill="#dc1a1a"/>
    </g>
    <g id="Group_67" data-name="Group 67" transform="translate(370.92 588.731)">
      <path id="Path_32" data-name="Path 32" d="M12.015,5A1.052,1.052,0,0,0,11,6.085v8.682a1.017,1.017,0,1,0,2.03,0V6.085A1.052,1.052,0,0,0,12.015,5Z" transform="translate(-11 -5)" fill="#dc1a1a"/>
      <rect id="Rectangle_96" data-name="Rectangle 96" width="1.899" height="1.899" rx="0.95" transform="translate(0.136 12.345)" fill="#dc1a1a"/>
    </g>
  </g>
</svg>
