<svg xmlns="http://www.w3.org/2000/svg" width="17.204" height="17.204" viewBox="0 0 17.204 17.204"><defs><style>.a{fill:#888;}</style></defs><path class="a" d="M8.6,0a8.6,8.6,0,1,0,8.6,8.6A8.6,8.6,0,0,0,8.6,0Zm0,15.77A7.168,7.168,0,1,1,15.77,8.6,7.168,7.168,0,0,1,8.6,15.77Z"/><path class="a" d="M11.434,10h-.717a.717.717,0,0,0,0,1.434h.717v4.3a.717.717,0,0,0,1.434,0v-4.3A1.434,1.434,0,0,0,11.434,10Z" transform="translate(-2.832 -2.832)"/><circle class="a" cx="1.075" cy="1.075" r="1.075" transform="translate(7.527 3.584)"/></svg>